<svg width="32" height="32" viewBox="0 0 32 32" fill="none" xmlns="http://www.w3.org/2000/svg">
<g clip-path="url(#clip0_2576_5221)">
<path d="M9.375 19.0576C9.375 19.2792 9.20573 19.4566 9 19.4566C8.79167 19.4566 8.625 19.2765 8.625 19.0576V9.28496H0.75V28.9798H2.04948C2.25781 28.9798 2.42448 29.1599 2.42448 29.3788C2.42448 29.6005 2.25521 29.7778 2.04948 29.7778H0.375C0.166667 29.7778 0 29.5977 0 29.3788V9.07161C0 8.9109 0.0625 8.76405 0.161458 8.65599C0.260417 8.5507 0.398438 8.4842 0.552083 8.4842H8.625V0.701013C8.625 0.509828 8.69792 0.332496 8.81771 0.20781V0.205039C8.9375 0.0775825 9.10156 0 9.28386 0H22.6563C22.8385 0 23.0026 0.0775825 23.1224 0.205039L23.151 0.238289C23.2526 0.362975 23.3177 0.523682 23.3177 0.701013V8.4842H31.4479C31.599 8.4842 31.737 8.5507 31.8359 8.65599L31.8385 8.65876C31.9375 8.76405 32 8.9109 32 9.07161V29.3788C32 29.6005 31.8307 29.7778 31.625 29.7778H29.2448C29.0365 29.7778 28.8698 29.5977 28.8698 29.3788C28.8698 29.1572 29.0391 28.9798 29.2448 28.9798H31.25V9.28496H23.3151V18.9412C23.3151 19.1629 23.1458 19.3402 22.9401 19.3402C22.7318 19.3402 22.5651 19.1601 22.5651 18.9412V0.797991H9.375V19.0576ZM25.2995 18.9911H29.4401C29.474 18.9911 29.5026 19.0132 29.5026 19.0382V20.3405C29.5026 20.3682 29.474 20.3903 29.4401 20.3903H25.2995C25.2656 20.3903 25.237 20.3682 25.237 20.3405V19.0382C25.237 19.0132 25.2656 18.9911 25.2995 18.9911ZM2.52865 18.9911H6.66927C6.70313 18.9911 6.73177 19.0132 6.73177 19.0382V20.3405C6.73177 20.3682 6.70313 20.3903 6.66927 20.3903H2.52865C2.49479 20.3903 2.46615 20.3682 2.46615 20.3405V19.0382C2.46615 19.0132 2.49479 18.9911 2.52865 18.9911ZM11.0573 2.34687H20.8854C21.0495 2.34687 21.1849 2.49095 21.1849 2.66551V6.07637C21.1849 6.25093 21.0495 6.39501 20.8854 6.39501H11.0573C10.8932 6.39501 10.7578 6.25093 10.7578 6.07637V2.66551C10.7552 2.49095 10.8906 2.34687 11.0573 2.34687ZM25.3646 29.099C25.0911 28.5143 24.7448 28.0184 24.3385 27.5529C25.099 27.866 25.8776 28.1763 26.4531 28.5614C27.5 29.2597 27.5781 30.1048 27.6641 31.3184H22.474C22.474 31.3101 22.474 31.299 22.474 31.2907L22.3776 30.4234L22.75 30.767L24.5729 29.0796L25.3646 29.099ZM6.79167 27.7302L7.45052 29.7917L7.78125 28.567L7.61979 28.3786C7.54688 28.265 7.53125 28.1652 7.57031 28.0793C7.65885 27.8937 7.84115 27.9297 8.01042 27.9297C8.1875 27.9297 8.40885 27.8937 8.46354 28.132C8.48177 28.2123 8.45833 28.2954 8.40625 28.3813L8.24479 28.5697L8.57552 29.7944L9.17188 27.733C9.25781 27.8161 9.38021 27.8854 9.52083 27.9463C9.47136 28.0571 9.42708 28.1708 9.38802 28.2927C9.28646 28.6058 9.22135 28.9521 9.19271 29.3373H9.19531C9.19531 29.3456 9.19531 29.3567 9.19271 29.365L9.04948 31.3212H4.28125C3.99479 31.299 3.84896 31.1411 3.82552 30.8695L3.92448 29.7889C3.95313 29.4038 4.05469 29.1017 4.21875 28.869C4.32813 28.7166 4.46354 28.603 4.61198 28.5143C5.08594 28.2234 6.36198 28.143 6.79167 27.7302ZM6.46875 24.807C6.40365 24.8125 6.35677 24.8292 6.32031 24.8513C6.29948 24.8652 6.28646 24.8846 6.27604 24.9067C6.26563 24.9317 6.26042 24.9649 6.26042 25.001C6.26302 25.1146 6.32031 25.2669 6.43229 25.4415L6.4349 25.4443L6.80208 26.0677C6.94792 26.3171 7.10417 26.5692 7.29167 26.7549C7.47135 26.9294 7.69271 27.0486 7.98177 27.0513C8.29688 27.0513 8.52604 26.9294 8.71354 26.7438C8.90885 26.5498 9.06511 26.2783 9.21875 26.0095L9.63281 25.2836C9.71615 25.0813 9.74219 24.9594 9.71615 24.9012C9.70052 24.8652 9.63021 24.8569 9.51823 24.8652C9.44531 24.8818 9.3724 24.868 9.29167 24.8236L9.4974 24.1642C8.73958 24.1531 8.21875 24.0145 7.60677 23.5962C7.40625 23.4604 7.34375 23.3025 7.14323 23.3163C6.98958 23.3468 6.86198 23.4216 6.76042 23.538C6.66146 23.6488 6.58854 23.8012 6.54167 23.9979L6.66406 24.7904C6.59896 24.8319 6.53385 24.8347 6.46875 24.807ZM9.75261 24.6103C9.84115 24.638 9.90625 24.6934 9.94792 24.7765C10.0104 24.9123 9.98698 25.1118 9.86979 25.3944C9.86719 25.3999 9.86458 25.4055 9.86198 25.411L9.44271 26.1453C9.28125 26.4307 9.11458 26.7161 8.89323 26.9377C8.66146 27.1677 8.3776 27.3201 7.98698 27.3201C7.6224 27.3201 7.34896 27.1705 7.125 26.9516C6.90885 26.741 6.74479 26.4722 6.59115 26.209L6.22396 25.5856C6.08594 25.3667 6.01563 25.1672 6.01042 25.0037C6.00781 24.9234 6.02083 24.8513 6.04948 24.7876C6.07813 24.7211 6.125 24.6629 6.1849 24.6214C6.21354 24.5992 6.2474 24.5826 6.28646 24.5687C6.26302 24.2362 6.25521 23.8234 6.27083 23.4742C6.27865 23.3883 6.29427 23.3052 6.3151 23.2193C6.40885 22.8619 6.64583 22.5737 6.9375 22.377C7.04167 22.3077 7.15365 22.2495 7.27344 22.2024C7.98177 21.9309 8.91927 22.0778 9.42188 22.6569C9.6276 22.8924 9.75521 23.2055 9.78125 23.6183L9.75261 24.6103ZM13.4583 21.8506C13.375 21.8616 13.3125 21.8838 13.2656 21.9143C13.2344 21.9364 13.2135 21.9642 13.2005 21.9946C13.1849 22.0334 13.1771 22.0805 13.1771 22.1332C13.1823 22.3022 13.2682 22.5294 13.4323 22.7899L13.4349 22.7954L13.9844 23.7264C14.2031 24.0977 14.4323 24.4745 14.7161 24.7516C14.987 25.0148 15.3125 25.1921 15.7448 25.1921C16.2135 25.1921 16.5573 25.0093 16.8333 24.7322C17.125 24.4413 17.3594 24.0395 17.5859 23.6377L18.2031 22.5571C18.3281 22.2551 18.3646 22.0722 18.3255 21.9891C18.2995 21.9337 18.1927 21.9198 18.0104 21.9392C17.9974 21.9392 17.9818 21.9392 17.9688 21.9392C17.8932 21.9392 17.8125 21.9198 17.7214 21.8755L18 20.8891C16.8672 20.8752 16.0938 20.6646 15.1771 20.0412C14.875 19.8362 14.7865 19.6034 14.4844 19.6256C14.2578 19.6727 14.0651 19.7808 13.9141 19.9553C13.7682 20.1216 13.6589 20.3488 13.5859 20.6425L13.7813 21.8367C13.6693 21.8921 13.5599 21.8977 13.4583 21.8506ZM13.9688 26.209L14.9531 29.2874L15.4479 27.4614L15.2057 27.1788C15.0964 27.0098 15.0729 26.8602 15.1328 26.7327C15.263 26.4556 15.5365 26.5083 15.7891 26.5083C16.0547 26.5083 16.3828 26.4556 16.4661 26.8075C16.4948 26.9267 16.4583 27.0486 16.3802 27.1788L16.138 27.4614L16.6328 29.2874L17.5234 26.209C18.1667 26.8241 19.8203 26.9488 20.5286 27.3672C20.7214 27.4808 20.8958 27.6221 21.0443 27.8022C21.0469 27.7828 21.0521 27.7607 21.0625 27.744C21.1406 27.5806 21.3021 27.611 21.4531 27.611C21.612 27.611 21.8073 27.5806 21.8568 27.7912C21.8724 27.8604 21.8516 27.9352 21.8073 28.0128L21.6641 28.1818L21.9583 29.268L21.5807 29.5866L21.7057 31.3295C21.6693 31.7368 21.4531 31.9695 21.026 32.0055H10.4688C10.0417 31.9695 9.82552 31.7368 9.78906 31.3295L9.9375 29.2763C9.97917 28.7027 10.1302 28.2483 10.3776 27.902C10.5391 27.6748 10.7422 27.5058 10.9661 27.3728C11.6719 26.9488 13.3255 26.8241 13.9688 26.209ZM18.3854 21.5541C18.5182 21.5956 18.6172 21.676 18.6771 21.8034C18.7708 22.0057 18.7344 22.3022 18.5599 22.7261C18.5573 22.7344 18.5521 22.7427 18.5495 22.7511L17.9219 23.8483C17.6797 24.275 17.4323 24.6989 17.1016 25.0287C16.7552 25.3722 16.3307 25.6022 15.75 25.5994C15.2057 25.5994 14.7969 25.3778 14.4609 25.0508C14.138 24.7377 13.8958 24.336 13.6615 23.9425L13.112 23.0115C12.9063 22.6873 12.8021 22.3881 12.7943 22.1415C12.7917 22.0223 12.8099 21.9143 12.8516 21.8201C12.8958 21.7203 12.9635 21.6344 13.0547 21.5707C13.099 21.5374 13.151 21.5125 13.2057 21.4903C13.1719 20.9916 13.1615 20.3765 13.1823 19.8583C13.1953 19.7309 13.2161 19.6062 13.25 19.4787C13.3906 18.944 13.7422 18.5145 14.1797 18.2208C14.3333 18.1155 14.5026 18.0296 14.6797 17.9631C15.7344 17.5558 17.1354 17.7775 17.8854 18.642C18.1901 18.9939 18.3828 19.4593 18.4245 20.0745L18.3854 21.5541ZM20.2943 26.6357L20.7786 26.6219L21.1823 26.6108C20.7135 25.073 20.8698 23.6599 22 22.4574C22.1927 23.1168 22.6224 23.6627 23.3542 24.0644C23.7031 24.3415 24.0417 24.674 24.3698 25.0591C24.4271 24.8042 24.2057 24.4967 23.9375 24.178C24.1849 24.3083 24.4141 24.4911 24.5755 24.843C24.763 25.2503 24.7604 25.5939 24.6979 26.0372C24.6693 26.2423 24.6224 26.4362 24.5547 26.6108H25.224C25.9297 25.0037 25.4818 22.6181 24.0391 21.6067C23.5964 21.2964 23.2786 21.3075 22.7578 21.3075C22.1641 21.3075 21.8594 21.3269 21.349 21.6871C20.599 22.2163 20.1354 23.1307 19.9427 24.3997C19.9036 25.0342 19.8776 26.1287 20.2943 26.6357ZM25.2995 16.1455H29.4401C29.474 16.1455 29.5026 16.1676 29.5026 16.1953V17.4976C29.5026 17.5253 29.474 17.5475 29.4401 17.5475H25.2995C25.2656 17.5475 25.237 17.5253 25.237 17.4976V16.1953C25.237 16.1676 25.2656 16.1455 25.2995 16.1455ZM25.2995 13.2971H29.4401C29.474 13.2971 29.5026 13.3192 29.5026 13.347V14.6492C29.5026 14.6769 29.474 14.6991 29.4401 14.6991H25.2995C25.2656 14.6991 25.237 14.6769 25.237 14.6492V13.347C25.237 13.3192 25.2656 13.2971 25.2995 13.2971ZM2.52865 16.1455H6.66927C6.70313 16.1455 6.73177 16.1676 6.73177 16.1953V17.4976C6.73177 17.5253 6.70313 17.5475 6.66927 17.5475H2.52865C2.49479 17.5475 2.46615 17.5253 2.46615 17.4976V16.1953C2.46615 16.1676 2.49479 16.1455 2.52865 16.1455ZM2.52865 13.2971H6.66927C6.70313 13.2971 6.73177 13.3192 6.73177 13.347V14.6492C6.73177 14.6769 6.70313 14.6991 6.66927 14.6991H2.52865C2.49479 14.6991 2.46615 14.6769 2.46615 14.6492V13.347C2.46615 13.3192 2.49479 13.2971 2.52865 13.2971ZM18.6641 13.5991H20.875C20.9089 13.5991 20.9375 13.6296 20.9375 13.6656V16.018C20.9375 16.054 20.9089 16.0845 20.875 16.0845H18.6641C18.6302 16.0845 18.6016 16.054 18.6016 16.018V13.6656C18.6016 13.6296 18.6302 13.5991 18.6641 13.5991ZM14.8646 13.5991H17.0755C17.1094 13.5991 17.138 13.6296 17.138 13.6656V16.018C17.138 16.054 17.1094 16.0845 17.0755 16.0845H14.8646C14.8307 16.0845 14.8021 16.054 14.8021 16.018V13.6656C14.8021 13.6296 14.8307 13.5991 14.8646 13.5991ZM11.0651 13.5991H13.276C13.3099 13.5991 13.3385 13.6296 13.3385 13.6656V16.018C13.3385 16.054 13.3099 16.0845 13.276 16.0845H11.0651C11.0313 16.0845 11.0026 16.054 11.0026 16.018V13.6656C11.0026 13.6296 11.0313 13.5991 11.0651 13.5991ZM18.6641 9.03559H20.875C20.9089 9.03559 20.9375 9.06607 20.9375 9.10209V11.4545C20.9375 11.4905 20.9089 11.521 20.875 11.521H18.6641C18.6302 11.521 18.6016 11.4905 18.6016 11.4545V9.10209C18.6016 9.0633 18.6302 9.03559 18.6641 9.03559ZM14.8646 9.03559H17.0755C17.1094 9.03559 17.138 9.06607 17.138 9.10209V11.4545C17.138 11.4905 17.1094 11.521 17.0755 11.521H14.8646C14.8307 11.521 14.8021 11.4905 14.8021 11.4545V9.10209C14.8021 9.0633 14.8307 9.03559 14.8646 9.03559ZM11.0651 9.03559H13.276C13.3099 9.03559 13.3385 9.06607 13.3385 9.10209V11.4545C13.3385 11.4905 13.3099 11.521 13.276 11.521H11.0651C11.0313 11.521 11.0026 11.4905 11.0026 11.4545V9.10209C11.0026 9.0633 11.0313 9.03559 11.0651 9.03559Z" fill="#ACE6E6"/>
</g>
<defs>
<clipPath id="clip0_2576_5221">
<rect width="32" height="32" fill="white"/>
</clipPath>
</defs>
</svg>
