<?xml version="1.0" encoding="UTF-8"?>
<svg version="1.1" xmlns="http://www.w3.org/2000/svg" width="127" height="129">
<path d="M0 0 C41.91 0 83.82 0 127 0 C127 42.57 127 85.14 127 129 C85.09 129 43.18 129 0 129 C0 86.43 0 43.86 0 0 Z " fill="#6600CC" transform="translate(0,0)"/>
<path d="M0 0 C2.02209816 1.43774963 3.67760269 2.86510269 5.4375 4.625 C5.7675 2.645 6.0975 0.665 6.4375 -1.375 C9.7375 -1.375 13.0375 -1.375 16.4375 -1.375 C16.4375 14.465 16.4375 30.305 16.4375 46.625 C13.1375 46.625 9.8375 46.625 6.4375 46.625 C5.9425 43.655 5.9425 43.655 5.4375 40.625 C4.715625 41.40875 3.99375 42.1925 3.25 43 C-1.94031738 47.84429622 -6.7072475 48.02728586 -13.56640625 47.859375 C-20.43630917 47.32196408 -24.16772765 45.39266374 -28.9375 40.375 C-34.4041867 33.68634804 -35.09911398 27.3848035 -34.93359375 18.9140625 C-34.24665455 12.82561187 -32.02835855 8.06047836 -27.66015625 3.74609375 C-19.81854758 -2.50010125 -9.06151873 -5.59536402 0 0 Z " fill="#FBF9FD" transform="translate(53.5625,68.375)"/>
<path d="M0 0 C5.3035228 2.70179463 9.09832298 6.29496895 11 12 C11.49631156 18.45205034 10.26363233 23.29824528 6.0625 28.3125 C1.69776318 31.88364831 -1.90946393 32.4974447 -7.4609375 32.3828125 C-11.49206787 31.77504207 -14.24710847 29.95735031 -17 27 C-20.91580153 21.5767068 -20.77288684 16.47292731 -20 10 C-18.00111641 5.52250075 -15.39993524 2.9464798 -10.9921875 0.6953125 C-7.29228383 -0.59602643 -3.84128838 -0.69395538 0 0 Z " fill="#6804CC" transform="translate(49,75)"/>
<path d="M0 0 C3.78570414 1.26190138 4.21831571 2.54855815 6.1875 5.9375 C6.71730469 6.83339844 7.24710938 7.72929687 7.79296875 8.65234375 C9 11 9 11 9 13 C12.25524265 9.97727468 14.61820737 6.74281699 17 3 C20.53598038 4.17866013 20.73114995 4.77766063 22.4453125 7.9296875 C22.88230469 8.72503906 23.31929687 9.52039063 23.76953125 10.33984375 C24.21683594 11.17644531 24.66414063 12.01304688 25.125 12.875 C25.80755859 14.11830078 25.80755859 14.11830078 26.50390625 15.38671875 C28.24045748 18.5764078 29.84914026 21.54742079 31 25 C27.76138697 23.55575365 25.38030837 21.74227753 22.75 19.375 C22.04359375 18.74335937 21.3371875 18.11171875 20.609375 17.4609375 C20.07828125 16.97882812 19.5471875 16.49671875 19 16 C17.35 16.66 15.7 17.32 14 18 C15.0305486 20.77455391 16.10839621 23.17263099 17.6875 25.6875 C18.120625 26.450625 18.55375 27.21375 19 28 C18.67 28.66 18.34 29.32 18 30 C17.46890625 29.48308594 16.9378125 28.96617188 16.390625 28.43359375 C15.68421875 27.77488281 14.9778125 27.11617187 14.25 26.4375 C13.55390625 25.77621094 12.8578125 25.11492188 12.140625 24.43359375 C10.13554212 22.7601472 10.13554212 22.7601472 7.90625 23.21875 C7.2771875 23.4765625 6.648125 23.734375 6 24 C5.0925 24.350625 4.185 24.70125 3.25 25.0625 C2.13625 25.5265625 2.13625 25.5265625 1 26 C2.32 23.69 3.64 21.38 5 19 C3.35 18.01 1.7 17.02 0 16 C-1.08539063 16.74765625 -2.17078125 17.4953125 -3.2890625 18.265625 C-4.7343592 19.26043961 -6.17967259 20.25523 -7.625 21.25 C-8.33785156 21.74113281 -9.05070312 22.23226562 -9.78515625 22.73828125 C-13.83554752 25.52524772 -17.90119913 28.28470605 -22 31 C-20.59213375 27.98556985 -18.93552319 25.40330773 -16.953125 22.734375 C-16.355 21.92613281 -15.756875 21.11789063 -15.140625 20.28515625 C-14.51671875 19.44855469 -13.8928125 18.61195312 -13.25 17.75 C-12.6415625 16.92886719 -12.033125 16.10773437 -11.40625 15.26171875 C-7.62280072 10.16052966 -3.81573182 5.07707253 0 0 Z " fill="#F7F2FC" transform="translate(79,14)"/>
<path d="M0 0 C3.3 0 6.6 0 10 0 C10 15.84 10 31.68 10 48 C6.7 48 3.4 48 0 48 C0 32.16 0 16.32 0 0 Z " fill="#FAF7FD" transform="translate(84,67)"/>
<path d="M0 0 C2 2 2 2 2.3125 4.9375 C2 8 2 8 0.875 9.875 C-1.88090884 11.52854531 -3.85075452 11.39365568 -7 11 C-8.875 9.875 -8.875 9.875 -10 8 C-10.39310741 4.85514075 -10.47555213 2.86718329 -8.9375 0.0625 C-5.81651045 -1.6490104 -3.35466116 -0.79291991 0 0 Z " fill="#FBF9FE" transform="translate(93,48)"/>
<path d="M0 0 C3.3 0 6.6 0 10 0 C10 2.31 10 4.62 10 7 C8.56770833 5.76302083 7.13541667 4.52604167 5.703125 3.2890625 C3.72409366 1.70937846 3.72409366 1.70937846 0 0 Z " fill="#FFFFFF" transform="translate(117,0)"/>
<path d="M0 0 C3.3 0 6.6 0 10 0 C8.02 0.99 8.02 0.99 6 2 C4.88962636 2.84042042 3.80392491 3.71479212 2.75 4.625 C1.8425 5.40875 0.935 6.1925 0 7 C0 4.69 0 2.38 0 0 Z " fill="#FFFFFF" transform="translate(0,0)"/>
<path d="M0 0 C0.33 0 0.66 0 1 0 C1 2.31 1 4.62 1 7 C-1.64 7 -4.28 7 -7 7 C-6.21625 6.401875 -5.4325 5.80375 -4.625 5.1875 C-1.85425677 3.08914751 -1.85425677 3.08914751 0 0 Z " fill="#FFFFFF" transform="translate(126,122)"/>
<path d="M0 0 C1.1446875 1.175625 1.1446875 1.175625 2.3125 2.375 C4.90891805 5.07257717 4.90891805 5.07257717 8 7 C5.36 7 2.72 7 0 7 C0 4.69 0 2.38 0 0 Z " fill="#FFFFFF" transform="translate(0,122)"/>
</svg>
